<?xml version="1.0" encoding="utf-8"?>
<svg version="1.1" xmlns:xlink="http://www.w3.org/1999/xlink" width="46px" height="46px" xmlns="http://www.w3.org/2000/svg">
  <defs>
    <mask fill="white" id="clip2">
      <path d="M 0 34.5  L 0 11.5  C 0 5.06000000000001  5.06 0  11.5 0  L 34.5 0  C 40.94 0  46 5.06000000000001  46 11.5  L 46 29.9  L 46 34.5  C 46 40.94  40.94 46  34.5 46  L 11.5 46  C 5.06 46  0 40.94  0 34.5  Z " fill-rule="evenodd" />
    </mask>
  </defs>
  <g transform="matrix(1 0 0 1 -34 -34 )">
    <path d="M 0 34.5  L 0 11.5  C 0 5.06000000000001  5.06 0  11.5 0  L 34.5 0  C 40.94 0  46 5.06000000000001  46 11.5  L 46 29.9  L 46 34.5  C 46 40.94  40.94 46  34.5 46  L 11.5 46  C 5.06 46  0 40.94  0 34.5  Z " fill-rule="nonzero" fill="#b0b0ff" stroke="none" fill-opacity="0" transform="matrix(1 0 0 1 34 34 )" />
    <path d="M 0 34.5  L 0 11.5  C 0 5.06000000000001  5.06 0  11.5 0  L 34.5 0  C 40.94 0  46 5.06000000000001  46 11.5  L 46 29.9  L 46 34.5  C 46 40.94  40.94 46  34.5 46  L 11.5 46  C 5.06 46  0 40.94  0 34.5  Z " stroke-width="2" stroke="#ffffff" fill="none" transform="matrix(1 0 0 1 34 34 )" mask="url(#clip2)" />
  </g>
</svg>