<?xml version="1.0" encoding="utf-8"?>
<svg version="1.1" xmlns:xlink="http://www.w3.org/1999/xlink" width="43px" height="43px" xmlns="http://www.w3.org/2000/svg">
  <defs>
    <mask fill="white" id="clip3">
      <path d="M 0 32.25  L 0 10.75  C 0 4.73000000000001  4.73 0  10.75 0  L 32.25 0  C 38.27 0  43 4.73000000000001  43 10.75  L 43 27.95  L 43 32.25  C 43 38.27  38.27 43  32.25 43  L 10.75 43  C 4.73 43  0 38.27  0 32.25  Z " fill-rule="evenodd" />
    </mask>
  </defs>
  <g transform="matrix(1 0 0 1 -34 -34 )">
    <path d="M 0 32.25  L 0 10.75  C 0 4.73000000000001  4.73 0  10.75 0  L 32.25 0  C 38.27 0  43 4.73000000000001  43 10.75  L 43 27.95  L 43 32.25  C 43 38.27  38.27 43  32.25 43  L 10.75 43  C 4.73 43  0 38.27  0 32.25  Z " fill-rule="nonzero" fill="#b0b0ff" stroke="none" fill-opacity="0" transform="matrix(1 0 0 1 34 34 )" />
    <path d="M 0 32.25  L 0 10.75  C 0 4.73000000000001  4.73 0  10.75 0  L 32.25 0  C 38.27 0  43 4.73000000000001  43 10.75  L 43 27.95  L 43 32.25  C 43 38.27  38.27 43  32.25 43  L 10.75 43  C 4.73 43  0 38.27  0 32.25  Z " stroke-width="2" stroke="#ffffff" fill="none" transform="matrix(1 0 0 1 34 34 )" mask="url(#clip3)" />
  </g>
</svg>