<?xml version="1.0" encoding="utf-8"?>
<svg version="1.1" xmlns:xlink="http://www.w3.org/1999/xlink" width="22px" height="21px" xmlns="http://www.w3.org/2000/svg">
  <g transform="matrix(1 0 0 1 -47 -47 )">
    <path d="M 21.9895561216431 13.4616254198745  C 21.9895561216431 11.485870075222  21.1913793540301 9.59138026416052  19.7712863767189 8.19651423089223  C 18.3357533451817 6.80228124235736  16.3956986320324 6.02893786411081  14.3801167252958 6.04748960665174  L 3.03207946913975 6.16165653981452  L 8.04157339302846 1.22561560601215  C 8.17060204255412 1.09951715388498  8.24317882275446 0.927866589823528  8.24317882275446 0.748800767508795  C 8.24317882275446 0.569734945194061  8.17060204255412 0.398084381132609  8.04157339302846 0.271985929005437  C 7.77573798385029 0.0116023188702663  7.34640384537901 0.0116023188702663  7.08056843620083 0.271985929005437  L 0.885153501758874 6.37655900223857  C 0.83451350794617 6.43001588649863  0.793074211312121 6.49126340996949  0.762472017908538 6.55788295490886  C 0.759315921847253 6.58690124998421  0.759315921847253 6.61616878519328  0.762472017908538 6.64518708026863  C 0.756055553568377 6.70097270030084  0.756055553568377 6.7572940090052  0.762472017908538 6.81307962903742  L 0.6875 6.81307962903742  C 0.680512210408171 6.84856580417588  0.680512210408171 6.88504468511098  0.6875 6.92053086024944  C 0.680405369241668 6.9672808896628  0.680405369241668 7.01481057180186  0.6875 7.06156060121522  C 0.715754012625652 7.12019665635119  0.752486106125825 7.17448690598195  0.796550207866965 7.22273744803326  C 0.795250330980195 7.24062308558673  0.795250330980195 7.2585774260858  0.796550207866965 7.27646306363927  L 6.99196514230892 13.3810361368724  C 7.1197137106267 13.5060251123923  7.29243887890782 13.5761691454941  7.47246762072274 13.5761691454941  C 7.84909658825027 13.5761691454941  8.15441469176339 13.2753278470179  8.15441469176339 12.904221298369  C 8.15441469176339 12.7251867346733  8.081903720005 12.5535548887258  7.95297009913655 12.4274064598657  L 2.90939798528941 7.45778701630956  L 14.2915134314039 7.34362008314679  C 15.9424176851792 7.32892148522323  17.5314348897921 7.96197406549039  18.708046850016 9.10313399424368  C 19.8997789412503 10.2493807486163  20.571729323662 11.8209315025088  20.571729323662 13.4618957021584  C 20.571729323662 16.8035175995869  17.8394705560451 19.5212367776742  14.4482731052127 19.552766229613  L 2.97073872721458 19.552766229613  C 2.59432143489706 19.552766229613  2.28917492804605 19.8534384475073  2.28917492804605 20.2243364246882  C 2.28917492804605 20.5952344018691  2.59432143489706 20.8959066197634  2.97073872721458 20.8959066197634  L 14.4482731052127 20.8959066197634  C 18.6137952040215 20.8939328508431  21.9895561216431 17.5660699566226  21.9895561216431 13.4616254198745  Z " fill-rule="nonzero" fill="#ffffff" stroke="none" transform="matrix(1 0 0 1 47 47 )" />
  </g>
</svg>