<?xml version="1.0" encoding="utf-8"?>
<svg version="1.1" xmlns:xlink="http://www.w3.org/1999/xlink" width="21px" height="20px" xmlns="http://www.w3.org/2000/svg">
  <g transform="matrix(1 0 0 1 -46 -46 )">
    <path d="M 20.9900308433866 12.8205956379757  C 20.9900308433866 10.9389238811638  20.2281348379378 9.13464787062907  18.8725915414135 7.80620402942117  C 17.5023100113098 6.47836308795939  15.6504396033036 5.74184558486744  13.7264750559642 5.7595139110969  L 2.89425767508794 5.86824432363287  L 7.67604732970899 1.16725295810681  C 7.79921104061984 1.04715919417617  7.86848887626562 0.883682466498599  7.86848887626562 0.713143588103614  C 7.86848887626562 0.542604709708629  7.79921104061984 0.379127982031056  7.67604732970899 0.259034218100416  C 7.42229534822073 0.0110498274954917  7.01247639786178 0.0110498274954917  6.75872441637352 0.259034218100416  L 0.844919251678925 6.0729133354653  C 0.796581075766799 6.12382465380822  0.757025383525207 6.18215562854237  0.727814198912696 6.24560281419891  C 0.724801561763287 6.27323928569924  0.724801561763287 6.30111312875551  0.727814198912696 6.32874960025584  C 0.721689392042542 6.38187876219128  0.721689392042542 6.43551810381448  0.727814198912696 6.48864726574992  L 0.65625 6.48864726574992  C 0.6495798372078 6.52244362302464  0.6495798372078 6.55718541439141  0.65625 6.59098177166613  C 0.649477852457956 6.63550560920267  0.649477852457956 6.68077197314463  0.65625 6.72529581068116  C 0.683219739324486 6.78113967271542  0.718282192211015 6.83284467236376  0.760343380236649 6.87879756955549  C 0.759102588662913 6.8958315100826  0.759102588662913 6.91293088198648  0.760343380236649 6.92996482251359  L 6.67414854493124 12.7438439398785  C 6.79609036014367 12.8628810594212  6.96096438441201 12.9296849004706  7.13281000159898 12.9296849004706  C 7.49231947060253 12.9296849004706  7.78375947850142 12.6431693781123  7.78375947850142 12.2897345698753  C 7.78375947850142 12.1192254615937  7.71454446000477 11.9557665606912  7.59147145826671 11.8356251998721  L 2.77715262232171 7.1026543012472  L 13.6418991845219 6.99392388871122  C 15.2177623358529 6.97992522402212  16.7345514857106 7.58283244332418  17.8576810841062 8.66965142308922  C 18.9952435348298 9.76131499868222  19.636650718041 11.2580300023893  19.636650718041 12.8208530496747  C 19.636650718041 16.0033500948447  17.0285855307703 18.5916540739754  13.7915334186121 18.621682123441  L 2.83570514870483 18.621682123441  C 2.47639773331083 18.621682123441  2.18512152222578 18.9080366166736  2.18512152222578 19.2612727854173  C 2.18512152222578 19.614508954161  2.47639773331083 19.9008634473937  2.83570514870483 19.9008634473937  C 2.83570514870483 19.9008634473937  2.83570514870483 19.9008634473937  2.83570514870483 20  L 13.7915334186121 20  C 17.7677136038387 19.8989836674696  20.9900308433866 16.7295904348786  20.9900308433866 12.8205956379757  Z " fill-rule="nonzero" fill="#ffffff" stroke="none" transform="matrix(1 0 0 1 46 46 )" />
  </g>
</svg>