<?xml version="1.0" encoding="utf-8"?>
<svg version="1.1" xmlns:xlink="http://www.w3.org/1999/xlink" width="7px" height="5px" xmlns="http://www.w3.org/2000/svg">
  <g transform="matrix(1 0 0 1 -91 -750 )">
    <path d="M 5.44072100410499 3.62418245174343  C 5.85796770880686 3.87736270400028  6.31587596088424 4.0730536826331  6.79893422166951 4.20462639991739  L 6.97308684630339 3.71199724173176  C 6.37506494464676 3.5517743019122  5.82426552175531 3.27611586813282  5.36007017030507 2.90473123511261  L 5.33614080203477 2.88543560861293  L 6.88711837511008 2.88543560861293  L 6.88711837511008 2.36996672926442  L 3.01100385177016 2.36996672926442  L 3.02208226300641 2.35303383254021  C 3.07713003234685 2.26603817292361  3.12697820875846 2.17652399726637  3.17141924647109 2.08486400302429  L 3.17496433806669 2.07816960199379  L 6.13245700169658 2.07816960199379  L 6.13245700169658 0.0155065080079005  L 0.977007548794244 0.0155065080079005  L 0.977007548794244 2.07816960199379  L 2.5186792564311 2.07816960199379  L 2.50937339099264 2.09470871042208  C 2.45476346749962 2.18830260027759  2.39317807893538 2.27854981375888  2.32502862802141 2.36484748141757  L 2.32148353642581 2.36996672926442  L 0.224118721178544 2.36996672926442  L 0.224118721178544 2.88543560861293  L 1.80788839151316 2.88543560861293  L 1.78395902324286 2.90512502340852  C 1.32708534385982 3.27331708008604  0.739043275439544 3.58834771681546  0.0357857301622542 3.84194737938264  L 0.257353954887299 4.31961258232363  C 0.922058629062434 4.08058308670518  1.49459092175194 3.78878595943455  1.96475869461849 3.45327833131772  L 1.97760965165254 3.44422120051175  C 2.20927530545988 3.27842301648493  2.42224486690774 3.09299460129611  2.61351045661342 2.89055485645979  L 2.61705554820902 2.88661697350067  L 4.54469910331691 2.88661697350067  L 4.54868733136196 2.8909486447557  C 4.73460738517062 3.10235844965514  4.94890088622122 3.2927879950207  5.18680381857009 3.45800379086866  L 5.20009791205359 3.46745470997055  L 5.18591754567118 3.47611805248061  L 4.77601632992985 3.72696119697641  L 5.7566772925629 4.96424402273121  L 6.23836661311514 4.66929658909329  L 5.38267012922703 3.58834771681546  L 5.44072100410499 3.62418245174343  Z M 5.54485806972576 1.5634882992371  L 1.56416334431561 1.56270072264528  L 1.56416334431561 1.24767008591585  L 5.06095306692626 1.24767008591585  L 5.06095306692626 0.814502960412898  L 1.56416334431561 0.814502960412898  L 1.56416334431561 0.532156752244153  L 5.54485806972576 0.532156752244153  L 5.54485806972576 1.5634882992371  Z " fill-rule="nonzero" fill="#3e3a39" stroke="none" transform="matrix(1 0 0 1 91 750 )" />
  </g>
</svg>