<?xml version="1.0" encoding="utf-8"?>
<svg version="1.1" xmlns:xlink="http://www.w3.org/1999/xlink" width="6px" height="3px" xmlns="http://www.w3.org/2000/svg">
  <g transform="matrix(1 0 0 1 -83 -749 )">
    <path d="M 0.588332179333216 2.87818831535213  L 0.588332179333216 2.5181082975704  L 5.42393913275692 2.5181082975704  L 5.42393913275692 2.97328637133038  L 5.99600870537177 2.87449518696462  L 5.99600870537177 1.9138201651649  L 4.87345709118413 1.9138201651649  L 4.88900011353442 1.89258467693675  C 5.19813355805687 1.47156804076119  5.44552666379899 1.0537828919247  5.48956522712481 0.978535401029286  L 5.10098966836755 0.72786431172739  L 5.13812022175991 0.724171183339885  C 5.58498211433076 0.678007078496072  5.85741675608168 0.646153846153844  5.92131584796621 0.638305948330396  L 5.85266749925243 0.0220151486655097  C 5.3496780259722 0.100032485851551  3.2004234354237 0.349318652008132  0.148810047316664 0.402407372578519  L 0.158740311596019 1.00669550498401  C 0.424698694034322 1.00161745345119  0.697133335785248 0.994692837724619  0.99115550857824 0.985460016755857  L 1.03433057066238 0.985460016755857  L 0.734263889177605 1.20335459161865  L 1.19710055471959 1.91520508831022  L 0.0162626067183593 1.91520508831022  L 0.0162626067183593 2.97697949971788  L 0.588332179333216 2.87818831535213  Z M 3.11234630877205 0.885745550293223  L 3.13566084229749 0.884360627147912  C 3.75910873879247 0.84512113803067  4.36226435610791 0.798033751089983  4.92872117065183 0.745868312616477  L 4.95376270666063 0.743098466325848  L 4.94037843741455 0.766180518747755  C 4.81085325116213 0.981305247319917  4.4684750088349 1.5237334792347  4.12696026774935 1.91105031887428  L 4.12350626278262 1.91520508831022  L 3.28504655710861 1.91520508831022  L 3.61404053018976 1.68438456409116  L 3.11234630877205 0.885745550293223  Z M 1.2795649233003 0.97484227264178  L 1.30287945682574 0.976688836835534  C 1.76787487547193 0.960069759091762  2.23632429908485 0.938834270863609  2.69484345841842 0.912520731102638  L 2.74060902422761 0.910212525860447  L 2.53293697560289 1.05516781507001  L 3.06917124668791 1.9138201651649  L 1.41383936638198 1.9138201651649  L 1.73678883077135 1.67884487150991  L 1.2795649233003 0.97484227264178  Z " fill-rule="nonzero" fill="#3e3a39" stroke="none" transform="matrix(1 0 0 1 83 749 )" />
  </g>
</svg>