<?xml version="1.0" encoding="utf-8"?>
<svg version="1.1" xmlns:xlink="http://www.w3.org/1999/xlink" width="7px" height="5px" xmlns="http://www.w3.org/2000/svg">
  <g transform="matrix(1 0 0 1 -82 -751 )">
    <path d="M 6.99233020443289 4.37077212126804  C 6.11130108685121 4.22781582490029  5.3061221582004 3.98389369545433  4.60058075583748 3.64608277730481  L 4.57769105385242 3.63523130926369  L 4.59923430277954 3.62202082643103  C 5.67639674913513 2.96715832029759  6.10052946238766 2.36560954845312  6.14989940784562 2.29200828695684  L 5.89945913906794 1.80463583102324  L 2.44356295701039 1.80463583102324  L 2.452988128416 1.78529190973256  C 2.53691703569454 1.61449923882455  2.61456249536934 1.4408757501667  2.68457805438246 1.26913947334208  L 2.68816859587031 1.26064702009251  L 6.66783501746827 1.26064702009251  L 6.66783501746827 0.643056947665516  L 2.91167980348909 0.643056947665516  L 2.91706561572087 0.625600238208069  C 2.99426225770969 0.37507286734578  3.03645112019195 0.177387427814144  3.04722274465551 0.123601890566875  L 2.46375975287956 0.000933121406428375  C 2.41588354173291 0.215533343175813  2.35593582917471 0.426958099231818  2.28423267848696 0.634092691457637  L 2.28109095468509 0.643056947665516  L 0.452607701996453 0.643056947665516  L 0.452607701996453 1.26064702009251  L 2.0355876804532 1.26064702009251  L 2.02706014441956 1.2799909413832  C 1.69269096836334 2.02072158592894  1.07242492633691 3.07284218295889  0.0145616404785092 3.89236392154231  L 0.368678794717914 4.38870063368379  C 1.04485001325016 3.86268526014883  1.62429239803213 3.21168111979995  2.07867417830743 2.46751898744794  L 2.08854816739902 2.45147768686542  L 2.09976860954856 2.46657538153133  C 2.26583115336172 2.69068178672829  2.64104273884225 3.13464837049742  3.28599375359767 3.59182543709923  L 3.30574173178085 3.6055077228902  L 3.28374966516776 3.6154155850147  C 2.49532736053589 3.95511953673672  1.67814031027898 4.21576904758646  0.84307908880036 4.3938904662252  L 0.96605513475929 4.99827005581953  C 2.07463481913359 4.75340432045695  3.06741954052467 4.41559340230743  3.91792905545962 3.99474516349545  L 3.92376368537737 3.9919143457456  L 3.92959831529513 3.99521696645377  C 4.73747015006183 4.44342977684769  5.67639674913513 4.7651993944147  6.72303959284399 4.95203336590521  L 6.99233020443289 4.37077212126804  Z M 3.95338565265215 3.28704072603136  L 3.94889747579234 3.29034334673953  L 3.94306284587459 3.28656892307306  C 3.55869891637135 3.05168703295458  3.20236315170729 2.7694417673434  2.88160901852834 2.44581605136571  L 2.85916813422926 2.42269770640854  L 5.21276807951625 2.42269770640854  L 5.18583901835735 2.44628785432402  C 4.80589666191671 2.77363710371776  4.39254524611187 3.05561644633034  3.95338565265215 3.28704072603136  Z " fill-rule="nonzero" fill="#3e3a39" stroke="none" transform="matrix(1 0 0 1 82 751 )" />
  </g>
</svg>