<?xml version="1.0" encoding="utf-8"?>
<svg version="1.1" xmlns:xlink="http://www.w3.org/1999/xlink" width="7px" height="7px" xmlns="http://www.w3.org/2000/svg">
  <g transform="matrix(1 0 0 1 -99 -749 )">
    <path d="M 5.31623371501911 6.21844420711378  C 4.93137399708895 6.23808271756867  4.81754224953215 6.09591697884083  4.81754224953215 5.71253910083  L 4.81754224953215 3.78668430382903  L 6.67318042002166 3.78668430382903  L 6.67318042002166 3.18600203839335  L 3.7596297385082 3.18600203839335  L 3.7596297385082 1.83564098254896  L 6.3158752124128 1.83564098254896  L 6.3158752124128 1.23538564125361  L 3.7596297385082 1.23538564125361  L 3.7596297385082 0.00499026884022673  L 3.08205981257483 0.00499026884022673  L 3.08205981257483 1.23410486883264  L 1.61715363270691 1.23410486883264  C 1.72104768801669 0.970692674252813  1.82403831675856 0.679103486411612  1.91257412041385 0.382391208886526  L 1.26075185166596 0.231260063211877  C 0.964879650675059 1.1815931995728  0.605315876646424 1.96884131433001  0.117465529974399 2.6519199388482  L 0.743991854820782 2.9507668370749  C 0.97636441198747 2.59231672764231  1.18412877505523 2.22012606448689  1.3660010468276 1.83649483082961  L 3.08251152585879 1.83649483082961  L 3.08251152585879 3.186855886674  L 0.0334468591586675 3.186855886674  L 0.0334468591586675 3.78753815210968  L 1.98801023883444 3.78753815210968  C 1.98801023883444 3.85712678698247  1.98258967942697 3.91561539420684  1.98033111300719 3.94165776676659  C 1.88592303666048 5.00469887617303  1.52861782905162 5.7108314042687  0.012668048096712 6.40799852541757  L 0.395269199607085 6.97623455618863  C 1.9893653786863 6.21033264844762  2.551748417211 5.43930765102272  2.65790103894056 3.95361164269566  C 2.66151474521221 3.90494229069874  2.66603187805176 3.8255344005985  2.66829044447154 3.78753815210968  L 4.13364833762342 3.78753815210968  L 4.13364833762342 5.89654340530958  C 4.13364833762342 6.48142947755328  4.54019029318344 6.86181888658184  5.22408420509218 6.83022650019788  C 5.72096881744331 6.80717259662039  6.84437975464082 6.74868398939602  6.84437975464082 6.74868398939602  L 6.95866321548158 6.133059379049  C 6.95866321548158 6.133059379049  5.85061052993855 6.19453645525564  5.31623371501911 6.21844420711378  Z " fill-rule="nonzero" fill="#3e3a39" stroke="none" transform="matrix(1 0 0 1 99 749 )" />
  </g>
</svg>