<?xml version="1.0" encoding="utf-8"?>
<svg version="1.1" xmlns:xlink="http://www.w3.org/1999/xlink" width="6px" height="8px" xmlns="http://www.w3.org/2000/svg">
  <g transform="matrix(1 0 0 1 -96 -735 )">
    <path d="M 5.9931527072351 7.96895565497059  L 3.04398987503027 4.45347830518507  C 4.39473780243038 4.38230226729328  5.43646183397305 3.6002500248674  5.43646183397305 2.23420060197539  C 5.43646183397305 1.02243960904756  4.48744497118762 0.0158070731494645  2.8652934482953 0.0158070731494645  L 0.0191385813762912 0.0158070731494645  L 0.0191385813762912 7.96895565497059  L 1.18357644982467 7.96895565497059  L 1.18357644982467 4.46983553128442  L 1.67129677241709 4.46983553128442  L 4.60478447946973 7.96895565497059  L 5.9931527072351 7.96895565497059  Z M 2.80886299774742 3.48044439586943  L 1.18447217126193 3.4808864830613  L 1.18447217126193 1.03658639918754  L 2.8388696658959 1.03658639918754  C 3.42691078946233 1.03658639918754  3.8362554862938 1.22889432765292  4.08078743866796 1.59671087129245  C 4.29934346936135 1.92518165485516  4.32128864457441 2.43667653585388  4.12243848550092 2.83455500854088  C 3.89850812618393 3.28371559548531  3.41795357508965 3.48044439586943  2.80886299774742 3.48044439586943  Z " fill-rule="nonzero" fill="#3e3a39" stroke="none" transform="matrix(1 0 0 1 96 735 )" />
  </g>
</svg>