<?xml version="1.0" encoding="utf-8"?>
<svg version="1.1" xmlns:xlink="http://www.w3.org/1999/xlink" width="7px" height="7px" xmlns="http://www.w3.org/2000/svg">
  <g transform="matrix(1 0 0 1 -107 -749 )">
    <path d="M 6.98515283715916 6.34371110246722  L 4.06188884385346 6.34371110246722  L 4.06188884385346 4.43272393865303  L 6.41953694866106 4.43272393865303  L 6.41953694866106 3.81221104689931  L 4.06188884385346 3.81221104689931  L 4.06188884385346 2.20272838408535  L 6.65749832569909 2.20272838408535  L 6.65749832569909 1.57346354745498  L 4.06188884385346 1.57346354745498  L 4.06188884385346 0.0051150255612324  L 3.35029280290319 0.0051150255612324  L 3.35029280290319 1.57215075572349  L 1.70881691937351 1.57215075572349  C 1.82917046199083 1.25926872638364  1.94037164395282 0.894312625027782  2.05843709640632 0.483408813069568  L 1.37201004725814 0.334188152922867  C 1.05533836858445 1.50301039119804  0.670939221061464 2.36857773949766  0.0321044473209011 3.26608968659702  L 0.636160250571298 3.64329851078017  C 0.988068517767931 3.112493054012  1.23106369316638 2.68933651922649  1.44522893250061 2.20141559235385  L 3.35029280290319 2.20141559235385  L 3.35029280290319 3.81221104689931  L 0.994017552193875 3.81221104689931  L 0.994017552193875 4.43316153589686  L 3.35029280290319 4.43316153589686  L 3.35029280290319 6.34414869971105  L 0.179457453871375 6.34414869971105  L 0.179457453871375 6.96728717492776  L 6.98515283715916 6.96728717492776  L 6.98515283715916 6.34371110246722  Z " fill-rule="nonzero" fill="#3e3a39" stroke="none" transform="matrix(1 0 0 1 107 749 )" />
  </g>
</svg>