<?xml version="1.0" encoding="utf-8"?>
<svg version="1.1" xmlns:xlink="http://www.w3.org/1999/xlink" width="19px" height="18px" xmlns="http://www.w3.org/2000/svg">
  <g transform="matrix(1 0 0 1 -45 -51 )">
    <path d="M 18.9909802868736 11.5385360741781  C 18.9909802868736 9.84503149304742  18.3016458057533 8.22118308356616  17.0752018708027 7.02558362647905  C 15.835423343566 5.83052677916346  14.1599215458461 5.16766102638069  12.4191917173009 5.18356251998721  L 2.61861408698433 5.28141989126959  L 6.94499520307004 1.05052766229613  C 7.05642903675128 0.942443274758554  7.11910898328794 0.795314219848739  7.11910898328794 0.641829229293253  C 7.11910898328794 0.488344238737767  7.05642903675128 0.341215183827951  6.94499520307004 0.233130796290374  C 6.71541007696161 0.00994484474594255  6.34462150282732 0.00994484474594255  6.1150363767189 0.233130796290374  L 0.764450751519028 5.46562200191877  C 0.720716211408056 5.5114421884274  0.684927727951377 5.56394006568813  0.658498560921011 5.62104253277902  C 0.655772841595355 5.64591535712932  0.655772841595355 5.67100181587996  0.658498560921011 5.69587464023025  C 0.652957068990871 5.74369088597215  0.652957068990871 5.79196629343303  0.658498560921011 5.83978253917493  L 0.59375 5.83978253917493  C 0.587715090807057 5.87019926072218  0.587715090807057 5.90146687295227  0.59375 5.93188359449952  C 0.587622818890531 5.9719550482824  0.587622818890531 6.01269477583016  0.59375 6.05276622961305  C 0.618151192722154 6.10302570544388  0.649874364381395 6.14956020512738  0.687929724976015 6.19091781259994  C 0.68680710402835 6.20624835907434  0.68680710402835 6.22163779378783  0.687929724976015 6.23696834026223  L 6.03851535017589 11.4694595458906  C 6.1488436591776 11.5765929534791  6.29801539542039 11.6367164104236  6.45349476335146 11.6367164104236  C 6.77876523530705 11.6367164104236  7.04244905197747 11.378852440301  7.04244905197747 11.0607611128878  C 7.04244905197747 10.9073029154343  6.97982594000432 10.7601899046221  6.86847417652702 10.6520626798849  L 2.51266189638631 6.39238887112248  L 12.3426706907579 6.2945314998401  C 13.7684516372003 6.28193270161991  15.1407846775477 6.82454919899177  16.1569495522865 7.8026862807803  C 17.1861727219889 8.785183498814  17.766493506799 10.1322270021504  17.766493506799 11.5387677447072  C 17.766493506799 14.4030150853602  15.4068154802208 16.7324886665779  12.4780540454109 16.7595139110969  L 2.56563799168532 16.7595139110969  C 2.24055033013837 16.7595139110969  1.97701471058523 17.0172329550063  1.97701471058523 17.3351455068756  C 1.97701471058523 17.6530580587449  2.24055033013837 17.9107771026543  2.56563799168532 17.9107771026543  L 12.4780540454109 17.9107771026543  C 16.0755504034731 17.9090853007226  18.9909802868736 15.0566313913908  18.9909802868736 11.5385360741781  Z " fill-rule="nonzero" fill="#ffffff" stroke="none" transform="matrix(1 0 0 1 45 51 )" />
  </g>
</svg>